<svg xmlns="http://www.w3.org/2000/svg" viewBox="0 0 24 24" width="24" height="24" fill="none">
  <path fill="currentColor"
    d="M4.25,5 L4.25,11.25 L12.75,11.25 L12.75,5 C12.75,4.586 13.086,4.25 13.5,4.25 C13.914,4.25 14.25,4.586 14.25,5 L14.25,19 C14.25,19.414 13.914,19.75 13.5,19.75 C13.086,19.75 12.75,19.414 12.75,19 L12.75,12.75 L4.25,12.75 L4.25,19 C4.25,19.414 3.914,19.75 3.5,19.75 C3.086,19.75 2.75,19.414 2.75,19 L2.75,5 C2.75,4.586 3.086,4.25 3.5,4.25 C3.914,4.25 4.25,4.586 4.25,5 Z M15.75,13 C15.75,11.481 16.982,10.25 18.5,10.25 C20.019,10.25 21.25,11.481 21.25,13 L21.25,13.214 C21.25,14.054 20.894,14.855 20.269,15.417 L17.664,17.762 C17.492,17.916 17.396,18.003 17.33,18.074 C17.3,18.105 17.285,18.124 17.278,18.134 L17.274,18.139 L17.273,18.142 L17.272,18.144 L17.271,18.145 C17.271,18.145 17.271,18.147 17.27,18.149 C17.27,18.151 17.269,18.153 17.269,18.155 C17.266,18.167 17.262,18.19 17.259,18.233 L17.257,18.25 L20.5,18.25 C20.915,18.25 21.25,18.586 21.25,19 C21.25,19.414 20.915,19.75 20.5,19.75 L16.5,19.75 C16.086,19.75 15.75,19.414 15.75,19 L15.75,18.691 L15.75,18.605 L15.75,18.605 C15.749,18.256 15.748,17.879 15.902,17.533 C16.056,17.188 16.337,16.937 16.597,16.704 L16.661,16.647 L19.266,14.302 C19.574,14.024 19.75,13.629 19.75,13.214 L19.75,13 C19.75,12.31 19.191,11.75 18.5,11.75 C17.81,11.75 17.25,12.31 17.25,13 L17.25,13.4 C17.25,13.814 16.915,14.15 16.5,14.15 C16.086,14.15 15.75,13.814 15.75,13.4 Z" />
</svg>