<svg xmlns="http://www.w3.org/2000/svg" viewBox="0 0 24 24" width="24" height="24" fill="none">
  <path fill="currentColor"
    d="M7.229,7.25 L7.333,7.25 C8.232,7.25 8.981,7.25 9.576,7.33 C10.203,7.414 10.77,7.6 11.226,8.055 C11.681,8.511 11.867,9.078 11.951,9.706 C12.031,10.3 12.031,11.05 12.031,11.948 L12.031,12.052 C12.031,12.95 12.031,13.7 11.951,14.295 C11.867,14.922 11.681,15.489 11.226,15.944 C10.77,16.4 10.203,16.586 9.576,16.67 C8.982,16.75 8.234,16.75 7.337,16.75 L7.226,16.75 C6.329,16.75 5.581,16.75 4.987,16.67 C4.359,16.586 3.792,16.4 3.337,15.944 C2.881,15.489 2.696,14.922 2.611,14.295 C2.531,13.7 2.531,12.95 2.531,12.052 L2.531,11.948 C2.531,11.05 2.531,10.3 2.611,9.706 C2.696,9.078 2.881,8.511 3.337,8.055 C3.792,7.6 4.359,7.414 4.987,7.33 C5.582,7.25 6.331,7.25 7.229,7.25 L7.229,7.25 Z M4.397,9.116 C4.267,9.246 4.16,9.444 4.098,9.905 C4.033,10.388 4.031,11.036 4.031,12 C4.031,12.964 4.033,13.612 4.098,14.095 C4.16,14.556 4.267,14.754 4.397,14.884 C4.528,15.014 4.725,15.121 5.187,15.184 C5.67,15.248 6.317,15.25 7.281,15.25 C8.245,15.25 8.893,15.248 9.376,15.184 C9.837,15.121 10.035,15.014 10.165,14.884 C10.295,14.754 10.403,14.556 10.465,14.095 C10.53,13.612 10.531,12.964 10.531,12 C10.531,11.036 10.53,10.388 10.465,9.905 C10.403,9.444 10.295,9.246 10.165,9.116 C10.035,8.986 9.837,8.879 9.376,8.817 C8.893,8.752 8.245,8.75 7.281,8.75 C6.317,8.75 5.67,8.752 5.187,8.817 C4.725,8.879 4.528,8.986 4.397,9.116 Z M2.531,21 C2.531,20.586 2.867,20.25 3.281,20.25 L21.281,20.25 C21.695,20.25 22.031,20.586 22.031,21 C22.031,21.414 21.695,21.75 21.281,21.75 L3.281,21.75 C2.867,21.75 2.531,21.414 2.531,21 Z M2.531,3 C2.531,2.586 2.867,2.25 3.281,2.25 L21.281,2.25 C21.695,2.25 22.031,2.586 22.031,3 C22.031,3.414 21.695,3.75 21.281,3.75 L3.281,3.75 C2.867,3.75 2.531,3.414 2.531,3 Z M15.281,8.25 L21.281,8.25 C21.695,8.25 22.031,8.586 22.031,9 C22.031,9.414 21.695,9.75 21.281,9.75 L15.281,9.75 C14.867,9.75 14.531,9.414 14.531,9 C14.531,8.586 14.867,8.25 15.281,8.25 Z M14.531,15 C14.531,14.586 14.867,14.25 15.281,14.25 L21.281,14.25 C21.695,14.25 22.031,14.586 22.031,15 C22.031,15.414 21.695,15.75 21.281,15.75 L15.281,15.75 C14.867,15.75 14.531,15.414 14.531,15 Z" />
</svg>