<svg width="24" height="24" viewBox="0 0 24 24" fill="none" xmlns="http://www.w3.org/2000/svg">
<path d="M12.279 1.75H12.393C14.584 1.75 16.305 1.75 17.648 1.931C19.025 2.116 20.117 2.503 20.975 3.361C21.833 4.219 22.22 5.311 22.405 6.688C22.586 8.031 22.586 9.752 22.586 11.943V12.057C22.586 14.248 22.586 15.969 22.405 17.312C22.22 18.689 21.833 19.781 20.975 20.639C20.306 21.309 19.49 21.694 18.502 21.918C18.098 22.01 17.696 21.757 17.604 21.353C17.513 20.949 17.766 20.547 18.17 20.455C18.959 20.276 19.494 19.999 19.914 19.578C20.447 19.045 20.756 18.322 20.919 17.112C21.084 15.88 21.086 14.26 21.086 12C21.086 11.167 21.086 10.422 21.077 9.75H3.595C3.586 10.422 3.586 11.167 3.586 12C3.586 14.26 3.588 15.88 3.753 17.112C3.916 18.322 4.224 19.045 4.758 19.578C5.178 19.999 5.713 20.276 6.502 20.455C6.906 20.547 7.159 20.949 7.067 21.353C6.976 21.757 6.574 22.01 6.17 21.918C5.182 21.694 4.366 21.309 3.697 20.639C2.839 19.781 2.452 18.689 2.267 17.312C2.086 15.969 2.086 14.248 2.086 12.057V11.943C2.086 9.752 2.086 8.031 2.267 6.688C2.452 5.311 2.839 4.219 3.697 3.361C4.555 2.503 5.647 2.116 7.024 1.931C8.367 1.75 10.088 1.75 12.279 1.75ZM9.586 8.25H15.086V3.267C14.29 3.25 13.381 3.25 12.336 3.25C11.291 3.25 10.382 3.25 9.586 3.267V8.25ZM13.086 13.5V16.75H16.336C16.75 16.75 17.086 17.086 17.086 17.5C17.086 17.914 16.75 18.25 16.336 18.25H13.086V21.5C13.086 21.914 12.75 22.25 12.336 22.25C11.922 22.25 11.586 21.914 11.586 21.5V18.25H8.336C7.922 18.25 7.586 17.914 7.586 17.5C7.586 17.086 7.922 16.75 8.336 16.75H11.586V13.5C11.586 13.086 11.922 12.75 12.336 12.75C12.75 12.75 13.086 13.086 13.086 13.5ZM16.586 3.331V8.25H21.035C21.01 7.747 20.974 7.296 20.919 6.888C20.756 5.678 20.447 4.955 19.914 4.422C19.381 3.889 18.658 3.58 17.448 3.417C17.18 3.381 16.893 3.353 16.586 3.331ZM8.086 8.25V3.331C7.778 3.353 7.492 3.381 7.224 3.417C6.014 3.58 5.291 3.889 4.758 4.422C4.224 4.955 3.916 5.678 3.753 6.888C3.698 7.296 3.661 7.747 3.637 8.25H8.086Z" fill="#CCCCCC"/>
</svg>
