<svg xmlns="http://www.w3.org/2000/svg" viewBox="0 0 24 24" width="24" height="24" fill="none">
  <path fill="currentColor"
    d="M8.232,2.25 L12.86,2.25 C15.729,2.25 18.031,4.613 18.031,7.5 C18.031,9.204 17.229,10.725 15.982,11.686 C17.786,12.5 19.031,14.363 19.031,16.5 C19.031,19.373 16.782,21.75 13.948,21.75 L8.229,21.75 C7.565,21.75 6.993,21.75 6.535,21.688 C6.044,21.622 5.573,21.473 5.19,21.091 C4.808,20.709 4.659,20.237 4.593,19.746 C4.531,19.287 4.531,18.714 4.531,18.049 L4.531,5.951 C4.531,5.286 4.531,4.713 4.593,4.254 C4.659,3.763 4.808,3.291 5.19,2.909 C5.573,2.527 6.044,2.378 6.535,2.312 C6.994,2.25 7.567,2.25 8.232,2.25 L8.232,2.25 Z M13.948,12.75 L6.031,12.75 L6.031,18 C6.031,18.728 6.033,19.199 6.079,19.546 C6.123,19.871 6.194,19.973 6.251,20.03 C6.308,20.087 6.41,20.158 6.735,20.202 C7.082,20.248 7.553,20.25 8.281,20.25 L13.948,20.25 C15.901,20.25 17.531,18.598 17.531,16.5 C17.531,14.402 15.901,12.75 13.948,12.75 Z M12.866,11.25 C14.878,11.247 16.531,9.582 16.531,7.5 C16.531,5.416 14.875,3.75 12.86,3.75 L8.281,3.75 C7.553,3.75 7.082,3.752 6.735,3.798 C6.41,3.842 6.308,3.913 6.251,3.97 C6.194,4.027 6.123,4.129 6.079,4.454 C6.033,4.801 6.031,5.272 6.031,6 L6.031,11.25 Z" />
</svg>