<svg xmlns="http://www.w3.org/2000/svg" viewBox="0 0 24 24" width="24" height="24" fill="none">
  <path fill="currentColor"
    d="M12.393,1.75 L12.393,1.75 C14.584,1.75 16.305,1.75 17.648,1.931 C19.025,2.116 20.117,2.503 20.975,3.361 C21.833,4.219 22.22,5.311 22.405,6.688 C22.586,8.031 22.586,9.752 22.586,11.943 L22.586,12.057 C22.586,14.248 22.586,15.969 22.405,17.312 C22.22,18.689 21.833,19.781 20.975,20.639 C20.117,21.497 19.025,21.884 17.648,22.069 C16.305,22.25 14.584,22.25 12.393,22.25 L12.279,22.25 C10.088,22.25 8.367,22.25 7.024,22.069 C5.647,21.884 4.555,21.497 3.697,20.639 C2.839,19.781 2.452,18.689 2.267,17.312 C2.086,15.969 2.086,14.248 2.086,12.057 L2.086,11.943 C2.086,9.752 2.086,8.031 2.267,6.688 C2.452,5.311 2.839,4.219 3.697,3.361 C4.555,2.503 5.647,2.116 7.024,1.931 C8.367,1.75 10.088,1.75 12.279,1.75 L12.393,1.75 Z M12.336,8.25 L21.035,8.25 C21.01,7.747 20.974,7.296 20.919,6.888 C20.756,5.678 20.447,4.955 19.914,4.422 C19.381,3.889 18.658,3.58 17.448,3.417 C16.216,3.252 14.596,3.25 12.336,3.25 C10.076,3.25 8.456,3.252 7.224,3.417 C6.014,3.58 5.291,3.889 4.758,4.422 C4.224,4.955 3.916,5.678 3.753,6.888 C3.698,7.296 3.661,7.747 3.637,8.25 L12.336,8.25 Z M13.086,20.75 C14.961,20.747 16.357,20.729 17.448,20.583 C18.658,20.42 19.381,20.111 19.914,19.578 C20.346,19.146 20.631,18.59 20.81,17.75 L13.086,17.75 Z M11.586,17.75 L3.862,17.75 C4.041,18.59 4.326,19.146 4.758,19.578 C5.291,20.111 6.014,20.42 7.224,20.583 C8.315,20.729 9.711,20.747 11.586,20.75 Z M13.086,12.25 L21.086,12.25 L21.086,12 C21.086,11.167 21.086,10.422 21.077,9.75 L13.086,9.75 Z M11.586,9.75 L3.595,9.75 C3.586,10.422 3.586,11.167 3.586,12 L3.586,12.25 L11.586,12.25 Z M13.086,16.25 L21.005,16.25 C21.056,15.539 21.075,14.717 21.082,13.75 L13.086,13.75 Z M11.586,13.75 L3.59,13.75 C3.597,14.717 3.615,15.539 3.667,16.25 L11.586,16.25 Z" />
</svg>