<svg xmlns="http://www.w3.org/2000/svg" viewBox="0 0 24 24" width="24" height="24" fill="none">
  <path fill="currentColor"
    d="M3.281,2.25 L21.281,2.25 C21.695,2.25 22.031,2.586 22.031,3 C22.031,3.414 21.695,3.75 21.281,3.75 L3.281,3.75 C2.867,3.75 2.531,3.414 2.531,3 C2.531,2.586 2.867,2.25 3.281,2.25 Z M2.531,15 C2.531,14.586 2.867,14.25 3.281,14.25 L21.281,14.25 C21.695,14.25 22.031,14.586 22.031,15 C22.031,15.414 21.695,15.75 21.281,15.75 L3.281,15.75 C2.867,15.75 2.531,15.414 2.531,15 Z M8.281,8.25 L16.281,8.25 C16.695,8.25 17.031,8.586 17.031,9 C17.031,9.414 16.695,9.75 16.281,9.75 L8.281,9.75 C7.867,9.75 7.531,9.414 7.531,9 C7.531,8.586 7.867,8.25 8.281,8.25 Z M8.281,20.25 L16.281,20.25 C16.695,20.25 17.031,20.586 17.031,21 C17.031,21.414 16.695,21.75 16.281,21.75 L8.281,21.75 C7.867,21.75 7.531,21.414 7.531,21 C7.531,20.586 7.867,20.25 8.281,20.25 Z" />
</svg>