<svg xmlns="http://www.w3.org/2000/svg" viewBox="0 0 24 24" width="24" height="24" fill="none">
  <path fill="currentColor"
    d="M7.366,3.43 C8.826,3.28 10.641,3.25 12.031,3.25 C13.422,3.25 15.237,3.28 16.697,3.43 L16.787,3.44 C17.299,3.492 17.702,3.533 18.07,3.684 C18.835,3.997 19.44,4.673 19.671,5.467 C19.782,5.849 19.782,6.268 19.781,6.806 L19.781,6.902 C19.781,7.316 19.445,7.652 19.031,7.652 C18.617,7.652 18.281,7.316 18.281,6.902 C18.281,6.222 18.274,6.036 18.231,5.886 C18.126,5.528 17.841,5.211 17.501,5.072 C17.359,5.014 17.188,4.989 16.543,4.923 C15.353,4.8 13.886,4.76 12.616,4.752 L8.992,19.25 L11.031,19.25 C11.446,19.25 11.781,19.586 11.781,20 C11.781,20.414 11.446,20.75 11.031,20.75 L8.071,20.75 C8.045,20.751 8.019,20.751 7.993,20.75 L5.031,20.75 C4.617,20.75 4.281,20.414 4.281,20 C4.281,19.586 4.617,19.25 5.031,19.25 L7.446,19.25 L11.069,4.755 C9.893,4.769 8.594,4.812 7.52,4.923 C6.875,4.989 6.704,5.014 6.562,5.072 C6.222,5.211 5.936,5.528 5.832,5.886 C5.789,6.036 5.781,6.222 5.781,6.902 C5.781,7.316 5.446,7.652 5.031,7.652 C4.617,7.652 4.281,7.316 4.281,6.902 L4.281,6.806 L4.281,6.806 C4.281,6.268 4.281,5.849 4.392,5.467 C4.623,4.673 5.228,3.997 5.993,3.684 C6.361,3.533 6.764,3.492 7.276,3.44 L7.276,3.44 Z M14.562,14.47 L16.531,16.439 L18.501,14.47 C18.794,14.177 19.269,14.177 19.562,14.47 C19.854,14.763 19.854,15.237 19.562,15.53 L17.592,17.5 L19.562,19.47 C19.854,19.763 19.854,20.237 19.562,20.53 C19.269,20.823 18.794,20.823 18.501,20.53 L16.531,18.561 L14.562,20.53 C14.269,20.823 13.794,20.823 13.501,20.53 C13.208,20.237 13.208,19.763 13.501,19.47 L15.471,17.5 L13.501,15.53 C13.208,15.237 13.208,14.763 13.501,14.47 C13.794,14.177 14.269,14.177 14.562,14.47 Z" />
</svg>