<svg xmlns="http://www.w3.org/2000/svg" viewBox="0 0 24 24" width="24" height="24" fill="none">
  <path fill="currentColor"
    d="M4.888,15.759 C4.863,15.754 4.815,15.75 4.5,15.75 L3,15.75 C2.586,15.75 2.25,15.414 2.25,15 C2.25,14.586 2.586,14.25 3,14.25 L4.5,14.25 L4.555,14.25 L4.557,14.25 C4.779,14.25 4.99,14.25 5.181,14.288 C5.954,14.441 6.559,15.046 6.713,15.82 C6.751,16.011 6.75,16.222 6.75,16.445 L6.75,16.5 L6.75,16.555 C6.75,16.778 6.751,16.99 6.713,17.181 C6.559,17.954 5.954,18.559 5.181,18.713 C4.989,18.751 4.778,18.75 4.555,18.75 L4.5,18.75 C4.185,18.75 4.137,18.754 4.112,18.759 C3.934,18.794 3.794,18.934 3.759,19.112 C3.754,19.138 3.75,19.185 3.75,19.5 L3.75,20.25 L6,20.25 C6.414,20.25 6.75,20.586 6.75,21 C6.75,21.414 6.414,21.75 6,21.75 L3.574,21.75 C3.457,21.75 3.304,21.75 3.171,21.732 C3.006,21.71 2.764,21.649 2.558,21.442 C2.351,21.236 2.29,20.994 2.268,20.829 C2.25,20.696 2.25,20.543 2.25,20.426 L2.25,20.4 L2.25,19.5 L2.25,19.445 L2.25,19.445 C2.25,19.222 2.25,19.011 2.288,18.82 C2.441,18.046 3.046,17.441 3.82,17.288 C3.962,17.259 4.115,17.252 4.276,17.25 C4.325,17.25 4.374,17.25 4.424,17.25 L4.445,17.25 L4.5,17.25 C4.815,17.25 4.863,17.246 4.888,17.241 C5.066,17.206 5.206,17.066 5.241,16.888 C5.246,16.863 5.25,16.815 5.25,16.5 C5.25,16.185 5.246,16.138 5.241,16.112 C5.206,15.934 5.066,15.794 4.888,15.759 Z M3,2.25 L4.2,2.25 C4.78,2.25 5.25,2.72 5.25,3.3 L5.25,8.25 L6,8.25 C6.414,8.25 6.75,8.586 6.75,9 C6.75,9.414 6.414,9.75 6,9.75 L3,9.75 C2.586,9.75 2.25,9.414 2.25,9 C2.25,8.586 2.586,8.25 3,8.25 L3.75,8.25 L3.75,3.75 L3,3.75 C2.586,3.75 2.25,3.414 2.25,3 C2.25,2.586 2.586,2.25 3,2.25 Z M10.25,6 C10.25,5.586 10.586,5.25 11,5.25 L21,5.25 C21.414,5.25 21.75,5.586 21.75,6 C21.75,6.414 21.414,6.75 21,6.75 L11,6.75 C10.586,6.75 10.25,6.414 10.25,6 Z M11,17.25 L21,17.25 C21.414,17.25 21.75,17.586 21.75,18 C21.75,18.414 21.414,18.75 21,18.75 L11,18.75 C10.586,18.75 10.25,18.414 10.25,18 C10.25,17.586 10.586,17.25 11,17.25 Z M10.25,12 C10.25,11.586 10.586,11.25 11,11.25 L21,11.25 C21.414,11.25 21.75,11.586 21.75,12 C21.75,12.414 21.414,12.75 21,12.75 L11,12.75 C10.586,12.75 10.25,12.414 10.25,12 Z" />
</svg>