<svg width="24" height="24" viewBox="0 0 24 24" fill="none" xmlns="http://www.w3.org/2000/svg">
<path d="M12.279 22.25H12.393C14.584 22.25 16.305 22.25 17.648 22.069C19.025 21.884 20.117 21.497 20.975 20.639C21.833 19.781 22.22 18.689 22.405 17.312C22.586 15.969 22.586 14.248 22.586 12.057V11.943C22.586 9.752 22.586 8.031 22.405 6.688C22.22 5.311 21.833 4.219 20.975 3.361C20.306 2.691 19.49 2.306 18.502 2.082C18.098 1.99 17.696 2.243 17.604 2.647C17.513 3.051 17.766 3.453 18.17 3.545C18.959 3.724 19.494 4.001 19.914 4.422C20.447 4.955 20.756 5.678 20.919 6.888C21.084 8.12 21.086 9.74 21.086 12C21.086 12.833 21.086 13.578 21.077 14.25H3.595C3.586 13.578 3.586 12.833 3.586 12C3.586 9.74 3.588 8.12 3.753 6.888C3.916 5.678 4.224 4.955 4.758 4.422C5.178 4.001 5.713 3.724 6.502 3.545C6.906 3.453 7.159 3.051 7.067 2.647C6.976 2.243 6.574 1.99 6.17 2.082C5.182 2.306 4.366 2.691 3.697 3.361C2.839 4.219 2.452 5.311 2.267 6.688C2.086 8.031 2.086 9.752 2.086 11.943V12.057C2.086 14.248 2.086 15.969 2.267 17.312C2.452 18.689 2.839 19.781 3.697 20.639C4.555 21.497 5.647 21.884 7.024 22.069C8.367 22.25 10.088 22.25 12.279 22.25ZM9.586 15.75H15.086V20.733C14.29 20.75 13.381 20.75 12.336 20.75C11.291 20.75 10.382 20.75 9.586 20.733V15.75ZM13.086 10.5V7.25H16.336C16.75 7.25 17.086 6.914 17.086 6.5C17.086 6.086 16.75 5.75 16.336 5.75H13.086V2.5C13.086 2.086 12.75 1.75 12.336 1.75C11.922 1.75 11.586 2.086 11.586 2.5V5.75H8.336C7.922 5.75 7.586 6.086 7.586 6.5C7.586 6.914 7.922 7.25 8.336 7.25H11.586V10.5C11.586 10.914 11.922 11.25 12.336 11.25C12.75 11.25 13.086 10.914 13.086 10.5ZM16.586 20.669V15.75H21.035C21.01 16.253 20.974 16.704 20.919 17.112C20.756 18.322 20.447 19.045 19.914 19.578C19.381 20.111 18.658 20.42 17.448 20.583C17.18 20.619 16.893 20.647 16.586 20.669ZM8.086 15.75V20.669C7.778 20.647 7.492 20.619 7.224 20.583C6.014 20.42 5.291 20.111 4.758 19.578C4.224 19.045 3.916 18.322 3.753 17.112C3.698 16.704 3.661 16.253 3.637 15.75H8.086Z" fill="#CCCCCC"/>
</svg>
