<svg xmlns="http://www.w3.org/2000/svg" viewBox="0 0 24 24" width="24" height="24" fill="none">
  <path fill="currentColor"
    d="M6.531,3 L6.531,11.5 C6.531,14.676 9.106,17.25 12.281,17.25 C15.457,17.25 18.031,14.676 18.031,11.5 L18.031,3 C18.031,2.586 18.367,2.25 18.781,2.25 C19.195,2.25 19.531,2.586 19.531,3 L19.531,11.5 C19.531,15.504 16.285,18.75 12.281,18.75 C8.277,18.75 5.031,15.504 5.031,11.5 L5.031,3 C5.031,2.586 5.367,2.25 5.781,2.25 C6.195,2.25 6.531,2.586 6.531,3 Z M3.281,20.25 L21.281,20.25 C21.695,20.25 22.031,20.586 22.031,21 C22.031,21.414 21.695,21.75 21.281,21.75 L3.281,21.75 C2.867,21.75 2.531,21.414 2.531,21 C2.531,20.586 2.867,20.25 3.281,20.25 Z" />
</svg>