<svg xmlns="http://www.w3.org/2000/svg" viewBox="0 0 24 24" width="24" height="24" fill="none">
  <path fill="currentColor"
    d="M4.25,5 L4.25,11.25 L12.75,11.25 L12.75,5 C12.75,4.586 13.086,4.25 13.5,4.25 C13.914,4.25 14.25,4.586 14.25,5 L14.25,19 C14.25,19.414 13.914,19.75 13.5,19.75 C13.086,19.75 12.75,19.414 12.75,19 L12.75,12.75 L4.25,12.75 L4.25,19 C4.25,19.414 3.914,19.75 3.5,19.75 C3.086,19.75 2.75,19.414 2.75,19 L2.75,5 C2.75,4.586 3.086,4.25 3.5,4.25 C3.914,4.25 4.25,4.586 4.25,5 Z M18.5,11.75 C17.81,11.75 17.25,12.31 17.25,13 C17.25,13.414 16.914,13.75 16.5,13.75 C16.086,13.75 15.75,13.414 15.75,13 C15.75,11.481 16.981,10.25 18.5,10.25 C20.019,10.25 21.25,11.481 21.25,13 C21.25,13.788 20.919,14.499 20.388,15 C20.919,15.501 21.25,16.212 21.25,17 C21.25,18.519 20.019,19.75 18.5,19.75 C16.981,19.75 15.75,18.519 15.75,17 C15.75,16.586 16.086,16.25 16.5,16.25 C16.914,16.25 17.25,16.586 17.25,17 C17.25,17.69 17.81,18.25 18.5,18.25 C19.19,18.25 19.75,17.69 19.75,17 C19.75,16.31 19.19,15.75 18.5,15.75 C18.086,15.75 17.75,15.414 17.75,15 C17.75,14.586 18.086,14.25 18.5,14.25 C19.19,14.25 19.75,13.69 19.75,13 C19.75,12.31 19.19,11.75 18.5,11.75 Z" />
</svg>