<svg xmlns="http://www.w3.org/2000/svg" viewBox="0 0 24 24" width="24" height="24" fill="none">
  <path fill="currentColor"
    d="M11.47,4.014 C13.821,1.662 17.634,1.662 19.986,4.014 C22.338,6.366 22.338,10.179 19.986,12.53 L17.377,15.14 C17.084,15.433 16.609,15.433 16.316,15.14 C16.023,14.847 16.023,14.372 16.316,14.079 L18.926,11.47 C20.691,9.704 20.691,6.84 18.926,5.074 C17.16,3.309 14.296,3.309 12.53,5.074 L9.921,7.684 C9.628,7.977 9.153,7.977 8.86,7.684 C8.567,7.391 8.567,6.916 8.86,6.623 Z M7.684,8.86 C7.977,9.153 7.977,9.628 7.684,9.921 L5.074,12.53 C3.309,14.296 3.309,17.16 5.074,18.926 C6.84,20.691 9.704,20.691 11.47,18.926 L14.079,16.316 C14.372,16.023 14.847,16.023 15.14,16.316 C15.433,16.609 15.433,17.084 15.14,17.377 L12.53,19.986 C10.179,22.338 6.366,22.338 4.014,19.986 C1.662,17.634 1.662,13.821 4.014,11.47 L6.623,8.86 C6.916,8.567 7.391,8.567 7.684,8.86 Z M17,19.171 C17.414,19.171 17.75,19.507 17.75,19.921 L17.75,22 C17.75,22.414 17.414,22.75 17,22.75 C16.586,22.75 16.25,22.414 16.25,22 L16.25,19.921 C16.25,19.507 16.586,19.171 17,19.171 Z M2,6.25 L4.079,6.25 C4.493,6.25 4.829,6.586 4.829,7 C4.829,7.414 4.493,7.75 4.079,7.75 L2,7.75 C1.586,7.75 1.25,7.414 1.25,7 C1.25,6.586 1.586,6.25 2,6.25 Z M7.75,2 L7.75,4.079 C7.75,4.493 7.414,4.829 7,4.829 C6.586,4.829 6.25,4.493 6.25,4.079 L6.25,2 C6.25,1.586 6.586,1.25 7,1.25 C7.414,1.25 7.75,1.586 7.75,2 Z M19.171,17 C19.171,16.586 19.507,16.25 19.921,16.25 L22,16.25 C22.414,16.25 22.75,16.586 22.75,17 C22.75,17.414 22.414,17.75 22,17.75 L19.921,17.75 C19.507,17.75 19.171,17.414 19.171,17 Z" />
</svg>