<svg width="24" height="24" viewBox="0 0 24 24" fill="none" xmlns="http://www.w3.org/2000/svg">
<path d="M12.279 1.75H12.393C14.584 1.75 16.305 1.75 17.648 1.931C19.025 2.116 20.117 2.503 20.975 3.361C21.645 4.03 22.03 4.846 22.254 5.834C22.346 6.238 22.093 6.64 21.689 6.731C21.285 6.823 20.883 6.57 20.791 6.166C20.612 5.377 20.335 4.842 19.914 4.422C19.381 3.889 18.658 3.58 17.448 3.417C16.216 3.252 14.596 3.25 12.336 3.25C11.503 3.25 10.757 3.25 10.086 3.259V20.741C10.757 20.75 11.503 20.75 12.336 20.75C14.596 20.75 16.216 20.748 17.448 20.583C18.658 20.42 19.381 20.111 19.914 19.578C20.335 19.158 20.612 18.623 20.791 17.834C20.883 17.43 21.285 17.177 21.689 17.269C22.093 17.36 22.346 17.762 22.254 18.166C22.03 19.154 21.645 19.969 20.975 20.639C20.117 21.497 19.025 21.884 17.648 22.069C16.305 22.25 14.584 22.25 12.393 22.25H12.279C10.088 22.25 8.367 22.25 7.024 22.069C5.647 21.884 4.555 21.497 3.697 20.639C2.839 19.781 2.452 18.689 2.267 17.312C2.086 15.969 2.086 14.248 2.086 12.057V11.943C2.086 9.752 2.086 8.031 2.267 6.688C2.452 5.311 2.839 4.219 3.697 3.361C4.555 2.503 5.647 2.116 7.024 1.931C8.367 1.75 10.088 1.75 12.279 1.75ZM8.586 14.752V9.252H3.603C3.586 10.048 3.586 10.955 3.586 12C3.586 13.046 3.586 13.955 3.603 14.752H8.586ZM22.366 9.532L19.897 12.002L22.366 14.472C22.659 14.764 22.659 15.239 22.366 15.532C22.073 15.825 21.598 15.825 21.306 15.532L18.836 13.063L16.366 15.532C16.073 15.825 15.599 15.825 15.306 15.532C15.013 15.239 15.013 14.764 15.306 14.472L17.775 12.002L15.306 9.532C15.013 9.239 15.013 8.765 15.306 8.472C15.599 8.179 16.073 8.179 16.366 8.472L18.836 10.941L21.306 8.472C21.598 8.179 22.073 8.179 22.366 8.472C22.659 8.765 22.659 9.239 22.366 9.532ZM3.667 7.752H8.586V3.301C8.083 3.325 7.632 3.362 7.224 3.417C6.014 3.58 5.291 3.889 4.758 4.422C4.224 4.955 3.916 5.678 3.753 6.888C3.717 7.157 3.689 7.444 3.667 7.752ZM8.586 16.252H3.667C3.689 16.559 3.717 16.845 3.753 17.112C3.916 18.322 4.224 19.045 4.758 19.578C5.291 20.111 6.014 20.42 7.224 20.583C7.632 20.638 8.083 20.675 8.586 20.699V16.252Z" fill="#CCCCCC"/>
</svg>
