<svg xmlns="http://www.w3.org/2000/svg" viewBox="0 0 24 24" fill="none">
  <path fill="currentColor"
    d="M12.807,1.75 L12.807,1.75 C14.998,1.75 16.719,1.75 18.062,1.931 C19.439,2.116 20.531,2.503 21.389,3.361 C22.247,4.219 22.634,5.311 22.819,6.688 C23,8.031 23,9.752 23,11.943 L23,12.057 C23,14.248 23,15.969 22.819,17.312 C22.634,18.689 22.247,19.781 21.389,20.639 C20.531,21.497 19.439,21.884 18.062,22.069 C16.719,22.25 14.998,22.25 12.807,22.25 L12.693,22.25 C10.502,22.25 8.781,22.25 7.438,22.069 C6.061,21.884 4.969,21.497 4.111,20.639 C3.253,19.781 2.866,18.689 2.681,17.312 C2.5,15.969 2.5,14.248 2.5,12.057 L2.5,11.943 C2.5,9.752 2.5,8.031 2.681,6.688 C2.866,5.311 3.253,4.219 4.111,3.361 C4.969,2.503 6.061,2.116 7.438,1.931 C8.781,1.75 10.502,1.75 12.693,1.75 L12.807,1.75 Z M7.638,3.417 C6.428,3.58 5.705,3.889 5.172,4.422 C4.639,4.955 4.33,5.678 4.167,6.888 C4.002,8.12 4,9.74 4,12 C4,14.26 4.002,15.88 4.167,17.112 C4.33,18.322 4.639,19.045 5.172,19.578 C5.705,20.111 6.428,20.42 7.638,20.583 C8.87,20.748 10.49,20.75 12.75,20.75 C15.01,20.75 16.63,20.748 17.862,20.583 C19.072,20.42 19.795,20.111 20.328,19.578 C20.861,19.045 21.17,18.322 21.333,17.112 C21.498,15.88 21.5,14.26 21.5,12 C21.5,9.74 21.498,8.12 21.333,6.888 C21.17,5.678 20.861,4.955 20.328,4.422 C19.795,3.889 19.072,3.58 17.862,3.417 C16.63,3.252 15.01,3.25 12.75,3.25 C10.49,3.25 8.87,3.252 7.638,3.417 Z M12.241,11.751 C12.172,11.75 12.091,11.75 11.992,11.75 C11.578,11.75 11.242,11.414 11.242,11 C11.242,10.586 11.578,10.25 11.992,10.25 L12.027,10.25 C12.232,10.25 12.453,10.25 12.641,10.275 C12.86,10.304 13.14,10.38 13.376,10.616 C13.612,10.852 13.688,11.132 13.717,11.351 C13.742,11.539 13.742,11.76 13.742,11.965 L13.742,17 C13.742,17.414 13.406,17.75 12.992,17.75 C12.578,17.75 12.242,17.414 12.242,17 L12.242,12 C12.242,11.901 12.242,11.821 12.241,11.751 Z M12.742,7 L12.751,7 C13.304,7 13.751,7.448 13.751,8 C13.751,8.552 13.304,9 12.751,9 L12.742,9 C12.19,9 11.742,8.552 11.742,8 C11.742,7.448 12.19,7 12.742,7 Z" />
</svg>