<svg xmlns="http://www.w3.org/2000/svg" viewBox="0 0 24 24" fill="none">
  <path fill="currentColor"
    d="M10.362,2.015 C11.426,1.662 12.574,1.662 13.638,2.015 C14.698,2.367 15.53,3.201 16.367,4.374 C17.2,5.543 18.121,7.172 19.308,9.273 L19.354,9.355 C20.542,11.456 21.462,13.085 22.036,14.406 C22.613,15.734 22.9,16.881 22.671,17.982 C22.44,19.091 21.871,20.1 21.043,20.862 C20.216,21.622 19.091,21.943 17.674,22.097 C16.264,22.25 14.421,22.25 12.049,22.25 L11.951,22.25 C9.579,22.25 7.736,22.25 6.326,22.097 C4.909,21.943 3.784,21.622 2.957,20.862 C2.129,20.1 1.56,19.091 1.329,17.982 C1.1,16.881 1.387,15.734 1.964,14.406 C2.538,13.085 3.458,11.456 4.646,9.355 L4.692,9.273 C5.879,7.172 6.8,5.543 7.633,4.374 C8.47,3.201 9.302,2.367 10.362,2.015 Z M13.165,3.439 C12.408,3.187 11.592,3.187 10.835,3.439 C10.239,3.636 9.639,4.144 8.855,5.245 C8.073,6.341 7.19,7.901 5.975,10.052 C4.759,12.202 3.878,13.764 3.34,15.004 C2.8,16.247 2.665,17.038 2.797,17.677 C2.965,18.482 3.378,19.21 3.973,19.758 C4.44,20.188 5.169,20.462 6.489,20.606 C7.807,20.749 9.569,20.75 12,20.75 C14.431,20.75 16.193,20.749 17.511,20.606 C18.831,20.462 19.56,20.188 20.027,19.758 C20.622,19.21 21.035,18.482 21.202,17.677 C21.335,17.038 21.2,16.247 20.66,15.004 C20.122,13.764 19.241,12.202 18.025,10.052 C16.81,7.901 15.927,6.341 15.145,5.245 C14.361,4.144 13.762,3.636 13.165,3.439 Z M11.491,12.751 C11.422,12.75 11.341,12.75 11.242,12.75 C10.828,12.75 10.492,12.414 10.492,12 C10.492,11.586 10.828,11.25 11.242,11.25 L11.277,11.25 C11.482,11.25 11.703,11.25 11.891,11.275 C12.11,11.304 12.39,11.38 12.626,11.616 C12.862,11.852 12.938,12.132 12.967,12.351 C12.992,12.539 12.992,12.76 12.992,12.965 L12.992,17 C12.992,17.414 12.656,17.75 12.242,17.75 C11.828,17.75 11.492,17.414 11.492,17 L11.492,13 C11.492,12.901 11.492,12.821 11.491,12.751 Z M11.992,8 L12.001,8 C12.554,8 13.001,8.448 13.001,9 C13.001,9.552 12.554,10 12.001,10 L11.992,10 C11.44,10 10.992,9.552 10.992,9 C10.992,8.448 11.44,8 11.992,8 Z" />
</svg>