<svg xmlns="http://www.w3.org/2000/svg" viewBox="0 0 24 24" width="24" height="24" fill="none">
  <path fill-rule="evenodd" clip-rule="evenodd"
    d="M15.25 6C15.25 6.41 15.59 6.75 16 6.75C16.41 6.75 16.75 6.41 16.75 6V4.83087C17.9724 4.93384 18.7679 5.16789 19.3 5.69995C19.9651 6.3651 20.1646 7.44206 20.2244 9.25H3.77561C3.83542 7.44206 4.03486 6.3651 4.70001 5.69995C5.23207 5.16789 6.02761 4.93384 7.25 4.83087V6C7.25 6.41 7.59 6.75 8 6.75C8.41 6.75 8.75 6.41 8.75 6V4.76273C9.40827 4.75 10.1539 4.75 10.9995 4.75H11H13H13.0005C13.8461 4.75 14.5917 4.75 15.25 4.76273V6ZM20.36 4.64001C21.4772 5.75719 21.6964 7.26193 21.7395 9.87591C21.7464 9.91634 21.75 9.9578 21.75 10C21.75 10.0349 21.7475 10.0693 21.7428 10.1031C21.75 10.6805 21.75 11.3104 21.75 12V14C21.75 17.98 21.75 19.97 20.36 21.36C18.97 22.75 16.98 22.75 13 22.75H11C7.03 22.75 5.03001 22.75 3.64001 21.36C2.25001 19.97 2.25 17.98 2.25 14V12C2.25 11.3104 2.25 10.6805 2.25723 10.1031C2.25247 10.0693 2.25 10.0349 2.25 10C2.25 9.9578 2.2536 9.91634 2.26051 9.87591C2.30356 7.26193 2.52284 5.75719 3.64001 4.64001C4.50206 3.77797 5.59486 3.45054 7.25 3.32617V2C7.25 1.59 7.59 1.25 8 1.25C8.41 1.25 8.75 1.59 8.75 2V3.26274C9.42134 3.25 10.1671 3.25 11 3.25H13C13.8324 3.25 14.5783 3.25 15.25 3.26282V2C15.25 1.59 15.59 1.25 16 1.25C16.41 1.25 16.75 1.59 16.75 2V3.3265C18.4032 3.45112 19.4987 3.77873 20.36 4.64001ZM3.75184 10.75H20.2482C20.25 11.1404 20.25 11.5565 20.25 12V14C20.25 17.56 20.25 19.35 19.3 20.3C18.35 21.25 16.5602 21.25 13.0006 21.25H13H11H10.9994C7.43981 21.25 5.64996 21.25 4.70001 20.3C3.75001 19.35 3.75 17.56 3.75 14V12C3.75 11.5565 3.75 11.1404 3.75184 10.75ZM10.9998 18C10.9998 18.55 11.4498 19 11.9998 19C12.5498 19 12.9998 18.55 12.9998 18C12.9998 17.45 12.5498 17 11.9998 17C11.4398 17 10.9998 17.45 10.9998 18ZM7.00977 18C7.00977 18.55 7.45977 19 8.00977 19C8.55977 19 9.00977 18.55 9.00977 18C9.00977 17.45 8.55977 17 8.00977 17C7.44977 17 7.00977 17.45 7.00977 18ZM14.9998 14C14.9998 14.55 15.4498 15 15.9998 15C16.5498 15 16.9998 14.55 16.9998 14C16.9998 13.45 16.5498 13 15.9998 13C15.4398 13 14.9998 13.45 14.9998 14ZM10.9998 14C10.9998 14.55 11.4498 15 11.9998 15C12.5498 15 12.9998 14.55 12.9998 14C12.9998 13.45 12.5498 13 11.9998 13C11.4398 13 10.9998 13.45 10.9998 14ZM7.00977 14C7.00977 14.55 7.45977 15 8.00977 15C8.55977 15 9.00977 14.55 9.00977 14C9.00977 13.45 8.55977 13 8.00977 13C7.44977 13 7.00977 13.45 7.00977 14Z"
    fill="#141B34" />
</svg>