<svg xmlns="http://www.w3.org/2000/svg" viewBox="0 0 24 24" width="24" height="24" fill="none">
  <path fill="currentColor"
    d="M4.25,5 L4.25,11.25 L12.75,11.25 L12.75,5 C12.75,4.586 13.086,4.25 13.5,4.25 C13.914,4.25 14.25,4.586 14.25,5 L14.25,19 C14.25,19.414 13.914,19.75 13.5,19.75 C13.086,19.75 12.75,19.414 12.75,19 L12.75,12.75 L4.25,12.75 L4.25,19 C4.25,19.414 3.914,19.75 3.5,19.75 C3.086,19.75 2.75,19.414 2.75,19 L2.75,5 C2.75,4.586 3.086,4.25 3.5,4.25 C3.914,4.25 4.25,4.586 4.25,5 Z M16.5,10.25 C16.914,10.25 17.25,10.586 17.25,11 L17.25,14.25 L19.75,14.25 L19.75,11 C19.75,10.586 20.086,10.25 20.5,10.25 C20.914,10.25 21.25,10.586 21.25,11 L21.25,19 C21.25,19.414 20.914,19.75 20.5,19.75 C20.086,19.75 19.75,19.414 19.75,19 L19.75,15.75 L16.5,15.75 C16.086,15.75 15.75,15.414 15.75,15 L15.75,11 C15.75,10.586 16.086,10.25 16.5,10.25 Z" />
</svg>