<svg width="24" height="24" viewBox="0 0 24 24" fill="none" xmlns="http://www.w3.org/2000/svg">
<path d="M11.943 1.75H12.057C14.248 1.75 15.969 1.75 17.312 1.931C18.689 2.116 19.781 2.503 20.639 3.361C21.497 4.219 21.884 5.311 22.069 6.688C22.25 8.031 22.25 9.752 22.25 11.943V12.057C22.25 14.248 22.25 15.969 22.069 17.312C21.884 18.689 21.497 19.781 20.639 20.639C19.781 21.497 18.689 21.884 17.312 22.069C15.969 22.25 14.248 22.25 12.057 22.25H11.943C9.752 22.25 8.031 22.25 6.688 22.069C5.311 21.884 4.219 21.497 3.361 20.639C2.503 19.781 2.116 18.689 1.931 17.312C1.75 15.969 1.75 14.248 1.75 12.057V11.943C1.75 9.752 1.75 8.031 1.931 6.688C2.116 5.311 2.503 4.219 3.361 3.361C4.219 2.503 5.311 2.116 6.688 1.931C8.031 1.75 9.752 1.75 11.943 1.75ZM4.422 4.422C3.889 4.955 3.58 5.678 3.417 6.888C3.252 8.12 3.25 9.74 3.25 12C3.25 14.26 3.252 15.88 3.417 17.112C3.58 18.322 3.889 19.045 4.422 19.578C4.955 20.111 5.678 20.42 6.888 20.583C8.12 20.748 9.74 20.75 12 20.75C14.26 20.75 15.88 20.748 17.112 20.583C18.322 20.42 19.045 20.111 19.578 19.578C20.111 19.045 20.42 18.322 20.583 17.112C20.748 15.88 20.75 14.26 20.75 12C20.75 9.74 20.748 8.12 20.583 6.888C20.42 5.678 20.111 4.955 19.578 4.422C19.045 3.889 18.322 3.58 17.112 3.417C15.88 3.252 14.26 3.25 12 3.25C9.74 3.25 8.12 3.252 6.888 3.417C5.678 3.58 4.955 3.889 4.422 4.422ZM17.531 7.532L14.377 10.686C14.843 10.742 15.425 10.766 15.975 10.745C16.389 10.73 16.738 11.052 16.753 11.465C16.771 11.876 16.446 12.227 16.032 12.243C15.2 12.275 13.185 12.272 12.457 11.544C11.729 10.815 11.726 8.802 11.757 7.969C11.774 7.555 12.121 7.233 12.535 7.248C12.949 7.265 13.271 7.605 13.256 8.026C13.235 8.574 13.26 9.157 13.314 9.624L16.468 6.47C16.762 6.177 17.236 6.177 17.529 6.47C17.675 6.616 17.749 6.809 17.749 7L17.75 7.003C17.75 7.195 17.676 7.386 17.531 7.532ZM12.245 16.032C12.228 16.446 11.881 16.768 11.467 16.753C11.053 16.736 10.733 16.387 10.746 15.975C10.767 15.426 10.742 14.842 10.688 14.377L7.531 17.534C7.237 17.827 6.763 17.827 6.47 17.534C6.177 17.24 6.177 16.766 6.47 16.473L9.627 13.316C9.16 13.262 8.578 13.236 8.03 13.257C7.617 13.273 7.267 12.95 7.252 12.537C7.236 12.123 7.559 11.775 7.973 11.759C8.805 11.727 10.817 11.73 11.547 12.455L11.548 12.457L11.55 12.458C12.151 13.063 12.257 14.55 12.257 15.514H12.255C12.255 15.713 12.251 15.891 12.245 16.032Z" fill="#CCCCCC"/>
</svg>
