<svg width="24" height="24" viewBox="0 0 24 24" fill="none" xmlns="http://www.w3.org/2000/svg">
<path d="M1.75 11.721L1.75 11.607C1.75 9.416 1.75 7.695 1.931 6.352C2.116 4.975 2.503 3.883 3.361 3.025C4.219 2.167 5.311 1.78 6.688 1.595C8.031 1.414 9.752 1.414 11.943 1.414L12.057 1.414C14.248 1.414 15.969 1.414 17.312 1.595C18.689 1.78 19.781 2.167 20.639 3.025C21.309 3.694 21.694 4.51 21.918 5.498C22.01 5.902 21.757 6.304 21.353 6.396C20.949 6.487 20.547 6.234 20.455 5.83C20.276 5.041 19.999 4.506 19.578 4.086C19.045 3.553 18.322 3.244 17.112 3.081C15.88 2.916 14.26 2.914 12 2.914C11.167 2.914 10.422 2.914 9.75 2.923L9.75 20.405C10.422 20.414 11.167 20.414 12 20.414C14.26 20.414 15.88 20.412 17.112 20.247C18.322 20.084 19.045 19.776 19.578 19.242C19.999 18.822 20.276 18.287 20.455 17.498C20.547 17.094 20.949 16.841 21.353 16.933C21.757 17.024 22.01 17.426 21.918 17.83C21.694 18.818 21.309 19.634 20.639 20.303C19.781 21.161 18.689 21.548 17.312 21.733C15.969 21.914 14.248 21.914 12.057 21.914L11.943 21.914C9.752 21.914 8.031 21.914 6.688 21.733C5.311 21.548 4.219 21.161 3.361 20.303C2.503 19.445 2.116 18.353 1.931 16.976C1.75 15.633 1.75 13.912 1.75 11.721ZM8.25 14.414L8.25 8.914L3.267 8.914C3.25 9.71 3.25 10.619 3.25 11.664C3.25 12.709 3.25 13.618 3.267 14.414L8.25 14.414ZM13.5 10.914L16.75 10.914L16.75 7.664C16.75 7.25 17.086 6.914 17.5 6.914C17.914 6.914 18.25 7.25 18.25 7.664L18.25 10.914L21.5 10.914C21.914 10.914 22.25 11.25 22.25 11.664C22.25 12.078 21.914 12.414 21.5 12.414L18.25 12.414L18.25 15.664C18.25 16.078 17.914 16.414 17.5 16.414C17.086 16.414 16.75 16.078 16.75 15.664L16.75 12.414L13.5 12.414C13.086 12.414 12.75 12.078 12.75 11.664C12.75 11.25 13.086 10.914 13.5 10.914ZM3.331 7.414L8.25 7.414L8.25 2.965C7.747 2.99 7.296 3.026 6.888 3.081C5.678 3.244 4.955 3.553 4.422 4.086C3.889 4.619 3.58 5.342 3.417 6.552C3.381 6.82 3.353 7.107 3.331 7.414ZM8.25 15.914L3.331 15.914C3.353 16.222 3.381 16.508 3.417 16.776C3.58 17.986 3.889 18.709 4.422 19.242C4.955 19.776 5.678 20.084 6.888 20.247C7.296 20.302 7.747 20.339 8.25 20.363L8.25 15.914Z" fill="#CCCCCC"/>
</svg>
