<svg xmlns="http://www.w3.org/2000/svg" viewBox="0 0 24 24" width="24" height="24" fill="none">
  <path fill="currentColor"
    d="M10.75,3.75 L10.75,21 C10.75,21.414 10.414,21.75 10,21.75 C9.586,21.75 9.25,21.414 9.25,21 L9.25,12.75 L7.5,12.75 C4.601,12.75 2.25,10.399 2.25,7.5 C2.25,4.601 4.601,2.25 7.5,2.25 L21,2.25 C21.414,2.25 21.75,2.586 21.75,3 C21.75,3.414 21.414,3.75 21,3.75 L15.75,3.75 L15.75,21 C15.75,21.414 15.414,21.75 15,21.75 C14.586,21.75 14.25,21.414 14.25,21 L14.25,3.75 Z M7.5,3.75 C5.429,3.75 3.75,5.429 3.75,7.5 C3.75,9.571 5.429,11.25 7.5,11.25 L9.25,11.25 L9.25,3.75 Z" />
</svg>