<svg xmlns="http://www.w3.org/2000/svg" viewBox="0 0 24 24" fill="none">
  <path fill="currentColor"
    d="M11.943,1.75 L12.057,1.75 C14.248,1.75 15.969,1.75 17.312,1.931 C18.689,2.116 19.781,2.503 20.639,3.361 C21.497,4.219 21.884,5.311 22.069,6.688 C22.25,8.031 22.25,9.752 22.25,11.943 L22.25,12.057 C22.25,14.248 22.25,15.969 22.069,17.312 C21.884,18.689 21.497,19.781 20.639,20.639 C19.781,21.497 18.689,21.884 17.312,22.069 C15.969,22.25 14.248,22.25 12.057,22.25 L11.943,22.25 C9.752,22.25 8.031,22.25 6.688,22.069 C5.311,21.884 4.219,21.497 3.361,20.639 C2.503,19.781 2.116,18.689 1.931,17.312 C1.75,15.969 1.75,14.248 1.75,12.057 L1.75,11.943 C1.75,9.752 1.75,8.031 1.931,6.688 C2.116,5.311 2.503,4.219 3.361,3.361 C4.219,2.503 5.311,2.116 6.688,1.931 C8.031,1.75 9.752,1.75 11.943,1.75 L11.943,1.75 Z M4.422,4.422 C3.889,4.955 3.58,5.678 3.417,6.888 C3.252,8.12 3.25,9.74 3.25,12 C3.25,14.26 3.252,15.88 3.417,17.112 C3.58,18.322 3.889,19.045 4.422,19.578 C4.955,20.111 5.678,20.42 6.888,20.583 C8.12,20.748 9.74,20.75 12,20.75 C14.26,20.75 15.88,20.748 17.112,20.583 C18.322,20.42 19.045,20.111 19.578,19.578 C20.111,19.045 20.42,18.322 20.583,17.112 C20.748,15.88 20.75,14.26 20.75,12 C20.75,9.74 20.748,8.12 20.583,6.888 C20.42,5.678 20.111,4.955 19.578,4.422 C19.045,3.889 18.322,3.58 17.112,3.417 C15.88,3.252 14.26,3.25 12,3.25 C9.74,3.25 8.12,3.252 6.888,3.417 C5.678,3.58 4.955,3.889 4.422,4.422 Z M16.553,9.507 L11.053,15.507 C10.915,15.658 10.721,15.745 10.516,15.75 C10.312,15.754 10.114,15.675 9.97,15.53 L7.47,13.03 C7.177,12.737 7.177,12.263 7.47,11.97 C7.763,11.677 8.237,11.677 8.53,11.97 L10.476,13.916 L15.447,8.493 C15.727,8.188 16.201,8.167 16.507,8.447 C16.812,8.727 16.833,9.201 16.553,9.507 Z" />
</svg>