<svg width="24" height="24" viewBox="0 0 24 24" fill="none" xmlns="http://www.w3.org/2000/svg">
<path d="M22.25 11.721L22.25 11.607C22.25 9.416 22.25 7.695 22.069 6.352C21.884 4.975 21.497 3.883 20.639 3.025C19.781 2.167 18.689 1.78 17.312 1.595C15.969 1.414 14.248 1.414 12.057 1.414L11.943 1.414C9.752 1.414 8.031 1.414 6.688 1.595C5.311 1.78 4.219 2.167 3.361 3.025C2.691 3.694 2.306 4.51 2.082 5.498C1.99 5.902 2.243 6.304 2.647 6.396C3.051 6.487 3.453 6.234 3.545 5.83C3.724 5.041 4.001 4.506 4.422 4.086C4.955 3.553 5.678 3.244 6.888 3.081C8.12 2.916 9.74 2.914 12 2.914C12.833 2.914 13.578 2.914 14.25 2.923L14.25 20.405C13.578 20.414 12.833 20.414 12 20.414C9.74 20.414 8.12 20.412 6.888 20.247C5.678 20.084 4.955 19.776 4.422 19.242C4.001 18.822 3.724 18.287 3.545 17.498C3.453 17.094 3.051 16.841 2.647 16.933C2.243 17.024 1.99 17.426 2.082 17.83C2.306 18.818 2.691 19.634 3.361 20.303C4.219 21.161 5.311 21.548 6.688 21.733C8.031 21.914 9.752 21.914 11.943 21.914L12.057 21.914C14.248 21.914 15.969 21.914 17.312 21.733C18.689 21.548 19.781 21.161 20.639 20.303C21.497 19.445 21.884 18.353 22.069 16.976C22.25 15.633 22.25 13.912 22.25 11.721ZM15.75 14.414L15.75 8.914L20.733 8.914C20.75 9.71 20.75 10.619 20.75 11.664C20.75 12.709 20.75 13.618 20.733 14.414L15.75 14.414ZM10.5 10.914L7.25 10.914L7.25 7.664C7.25 7.25 6.914 6.914 6.5 6.914C6.086 6.914 5.75 7.25 5.75 7.664L5.75 10.914L2.5 10.914C2.086 10.914 1.75 11.25 1.75 11.664C1.75 12.078 2.086 12.414 2.5 12.414L5.75 12.414L5.75 15.664C5.75 16.078 6.086 16.414 6.5 16.414C6.914 16.414 7.25 16.078 7.25 15.664L7.25 12.414L10.5 12.414C10.914 12.414 11.25 12.078 11.25 11.664C11.25 11.25 10.914 10.914 10.5 10.914ZM20.669 7.414L15.75 7.414L15.75 2.965C16.253 2.99 16.704 3.026 17.112 3.081C18.322 3.244 19.045 3.553 19.578 4.086C20.111 4.619 20.42 5.342 20.583 6.552C20.619 6.82 20.647 7.107 20.669 7.414ZM15.75 15.914L20.669 15.914C20.647 16.222 20.619 16.508 20.583 16.776C20.42 17.986 20.111 18.709 19.578 19.242C19.045 19.776 18.322 20.084 17.112 20.247C16.704 20.302 16.253 20.339 15.75 20.363L15.75 15.914Z" fill="#CCCCCC"/>
</svg>
