<svg xmlns="http://www.w3.org/2000/svg" viewBox="0 0 24 24" width="24" height="24" fill="none">
  <path fill="currentColor"
    d="M9,4.25 L21,4.25 C21.414,4.25 21.75,4.586 21.75,5 C21.75,5.414 21.414,5.75 21,5.75 L9,5.75 C8.586,5.75 8.25,5.414 8.25,5 C8.25,4.586 8.586,4.25 9,4.25 Z M8.25,12 C8.25,11.586 8.586,11.25 9,11.25 L21,11.25 C21.414,11.25 21.75,11.586 21.75,12 C21.75,12.414 21.414,12.75 21,12.75 L9,12.75 C8.586,12.75 8.25,12.414 8.25,12 Z M8.25,19 C8.25,18.586 8.586,18.25 9,18.25 L21,18.25 C21.414,18.25 21.75,18.586 21.75,19 C21.75,19.414 21.414,19.75 21,19.75 L9,19.75 C8.586,19.75 8.25,19.414 8.25,19 Z M3,4.25 L5,4.25 C5.414,4.25 5.75,4.586 5.75,5 C5.75,5.414 5.414,5.75 5,5.75 L3,5.75 C2.586,5.75 2.25,5.414 2.25,5 C2.25,4.586 2.586,4.25 3,4.25 Z M3,18.25 L5,18.25 C5.414,18.25 5.75,18.586 5.75,19 C5.75,19.414 5.414,19.75 5,19.75 L3,19.75 C2.586,19.75 2.25,19.414 2.25,19 C2.25,18.586 2.586,18.25 3,18.25 Z M3,11.25 L5,11.25 C5.414,11.25 5.75,11.586 5.75,12 C5.75,12.414 5.414,12.75 5,12.75 L3,12.75 C2.586,12.75 2.25,12.414 2.25,12 C2.25,11.586 2.586,11.25 3,11.25 Z" />
</svg>