<svg xmlns="http://www.w3.org/2000/svg" viewBox="0 0 24 24" width="24" height="24" fill="none">
  <path fill="currentColor"
    d="M3.281,2.25 L21.281,2.25 C21.695,2.25 22.031,2.586 22.031,3 C22.031,3.414 21.695,3.75 21.281,3.75 L3.281,3.75 C2.867,3.75 2.531,3.414 2.531,3 C2.531,2.586 2.867,2.25 3.281,2.25 Z M2.531,15 C2.531,14.586 2.867,14.25 3.281,14.25 L21.281,14.25 C21.695,14.25 22.031,14.586 22.031,15 C22.031,15.414 21.695,15.75 21.281,15.75 L3.281,15.75 C2.867,15.75 2.531,15.414 2.531,15 Z M13.281,8.25 L21.281,8.25 C21.695,8.25 22.031,8.586 22.031,9 C22.031,9.414 21.695,9.75 21.281,9.75 L13.281,9.75 C12.867,9.75 12.531,9.414 12.531,9 C12.531,8.586 12.867,8.25 13.281,8.25 Z M13.281,20.25 L21.281,20.25 C21.695,20.25 22.031,20.586 22.031,21 C22.031,21.414 21.695,21.75 21.281,21.75 L13.281,21.75 C12.867,21.75 12.531,21.414 12.531,21 C12.531,20.586 12.867,20.25 13.281,20.25 Z" />
</svg>