<svg xmlns="http://www.w3.org/2000/svg" viewBox="0 0 24 24" width="24" height="24" fill="none">
  <path fill="currentColor"
    d="M17.333,7.25 C18.232,7.25 18.981,7.25 19.576,7.33 C20.204,7.414 20.77,7.6 21.226,8.055 C21.681,8.511 21.867,9.078 21.951,9.706 C22.031,10.3 22.031,11.05 22.031,11.948 L22.031,12.052 C22.031,12.95 22.031,13.7 21.951,14.295 C21.867,14.922 21.681,15.489 21.226,15.944 C20.77,16.4 20.204,16.586 19.576,16.67 C18.982,16.75 18.234,16.75 17.337,16.75 L17.226,16.75 C16.329,16.75 15.581,16.75 14.987,16.67 C14.359,16.586 13.792,16.4 13.337,15.944 C12.881,15.489 12.696,14.922 12.611,14.295 C12.531,13.7 12.531,12.95 12.531,12.052 L12.531,11.948 C12.531,11.05 12.531,10.3 12.611,9.706 C12.696,9.078 12.881,8.511 13.337,8.055 C13.792,7.6 14.359,7.414 14.987,7.33 C15.582,7.25 16.331,7.25 17.229,7.25 Z M14.397,9.116 C14.267,9.246 14.16,9.444 14.098,9.905 C14.033,10.388 14.031,11.036 14.031,12 C14.031,12.964 14.033,13.612 14.098,14.095 C14.16,14.556 14.267,14.754 14.397,14.884 C14.528,15.014 14.725,15.121 15.187,15.184 C15.67,15.248 16.317,15.25 17.281,15.25 C18.245,15.25 18.893,15.248 19.376,15.184 C19.837,15.121 20.035,15.014 20.165,14.884 C20.295,14.754 20.403,14.556 20.465,14.095 C20.53,13.612 20.531,12.964 20.531,12 C20.531,11.036 20.53,10.388 20.465,9.905 C20.403,9.444 20.295,9.246 20.165,9.116 C20.035,8.986 19.837,8.879 19.376,8.817 C18.893,8.752 18.245,8.75 17.281,8.75 C16.317,8.75 15.67,8.752 15.187,8.817 C14.725,8.879 14.528,8.986 14.397,9.116 Z M2.531,21 C2.531,20.586 2.867,20.25 3.281,20.25 L21.281,20.25 C21.695,20.25 22.031,20.586 22.031,21 C22.031,21.414 21.695,21.75 21.281,21.75 L3.281,21.75 C2.867,21.75 2.531,21.414 2.531,21 Z M2.531,3 C2.531,2.586 2.867,2.25 3.281,2.25 L21.281,2.25 C21.695,2.25 22.031,2.586 22.031,3 C22.031,3.414 21.695,3.75 21.281,3.75 L3.281,3.75 C2.867,3.75 2.531,3.414 2.531,3 Z M3.281,8.25 L9.281,8.25 C9.695,8.25 10.031,8.586 10.031,9 C10.031,9.414 9.695,9.75 9.281,9.75 L3.281,9.75 C2.867,9.75 2.531,9.414 2.531,9 C2.531,8.586 2.867,8.25 3.281,8.25 Z M2.531,15 C2.531,14.586 2.867,14.25 3.281,14.25 L9.281,14.25 C9.695,14.25 10.031,14.586 10.031,15 C10.031,15.414 9.695,15.75 9.281,15.75 L3.281,15.75 C2.867,15.75 2.531,15.414 2.531,15 Z" />
</svg>