<svg width="24" height="24" viewBox="0 0 24 24" fill="none" xmlns="http://www.w3.org/2000/svg">
<path d="M22.25 12.279L22.25 12.393C22.25 14.584 22.25 16.305 22.069 17.648C21.884 19.025 21.497 20.117 20.639 20.975C19.97 21.645 19.154 22.03 18.166 22.254C17.762 22.346 17.36 22.093 17.269 21.689C17.177 21.285 17.43 20.883 17.834 20.791C18.623 20.612 19.158 20.335 19.578 19.914C20.111 19.381 20.42 18.658 20.583 17.448C20.748 16.216 20.75 14.596 20.75 12.336C20.75 11.503 20.75 10.757 20.741 10.086L3.259 10.086C3.25 10.757 3.25 11.503 3.25 12.336C3.25 14.596 3.252 16.216 3.417 17.448C3.58 18.658 3.889 19.381 4.422 19.914C4.842 20.335 5.377 20.612 6.166 20.791C6.57 20.883 6.823 21.285 6.731 21.689C6.64 22.093 6.238 22.346 5.834 22.254C4.846 22.03 4.031 21.645 3.361 20.975C2.503 20.117 2.116 19.025 1.931 17.648C1.75 16.305 1.75 14.584 1.75 12.393L1.75 12.279C1.75 10.088 1.75 8.367 1.931 7.024C2.116 5.647 2.503 4.555 3.361 3.697C4.219 2.839 5.311 2.452 6.688 2.267C8.031 2.086 9.752 2.086 11.943 2.086L12.057 2.086C14.248 2.086 15.969 2.086 17.312 2.267C18.689 2.452 19.781 2.839 20.639 3.697C21.497 4.555 21.884 5.647 22.069 7.024C22.25 8.367 22.25 10.088 22.25 12.279ZM9.248 8.586L14.748 8.586L14.748 3.603C13.952 3.586 13.045 3.586 12 3.586C10.954 3.586 10.045 3.586 9.248 3.603L9.248 8.586ZM14.468 22.366L11.998 19.897L9.528 22.366C9.236 22.659 8.761 22.659 8.468 22.366C8.175 22.073 8.175 21.598 8.468 21.306L10.937 18.836L8.468 16.366C8.175 16.073 8.175 15.599 8.468 15.306C8.761 15.013 9.236 15.013 9.528 15.306L11.998 17.775L14.468 15.306C14.761 15.013 15.235 15.013 15.528 15.306C15.821 15.599 15.821 16.073 15.528 16.366L13.059 18.836L15.528 21.306C15.821 21.598 15.821 22.073 15.528 22.366C15.235 22.659 14.761 22.659 14.468 22.366ZM16.248 3.667L16.248 8.586L20.699 8.586C20.675 8.083 20.638 7.632 20.583 7.224C20.42 6.014 20.111 5.291 19.578 4.758C19.045 4.224 18.322 3.916 17.112 3.753C16.843 3.717 16.556 3.689 16.248 3.667ZM7.748 8.586L7.748 3.667C7.441 3.689 7.155 3.717 6.888 3.753C5.678 3.916 4.955 4.224 4.422 4.758C3.889 5.291 3.58 6.014 3.417 7.224C3.362 7.632 3.325 8.083 3.301 8.586L7.748 8.586Z" fill="#CCCCCC"/>
</svg>
