<svg xmlns="http://www.w3.org/2000/svg" viewBox="0 0 24 24" width="24" height="24" fill="none">
  <path fill="currentColor"
    d="M19.986,4.014 C22.338,6.366 22.338,10.179 19.986,12.53 L17.377,15.14 C17.084,15.433 16.609,15.433 16.316,15.14 C16.023,14.847 16.023,14.372 16.316,14.079 L18.926,11.47 C20.691,9.704 20.691,6.84 18.926,5.074 C17.16,3.309 14.296,3.309 12.53,5.074 L9.921,7.684 C9.628,7.977 9.153,7.977 8.86,7.684 C8.567,7.391 8.567,6.916 8.86,6.623 L11.47,4.014 C13.821,1.662 17.634,1.662 19.986,4.014 Z M7.684,9.921 L5.074,12.53 C3.309,14.296 3.309,17.16 5.074,18.926 C6.84,20.691 9.704,20.691 11.47,18.926 L14.079,16.316 C14.372,16.023 14.847,16.023 15.14,16.316 C15.433,16.609 15.433,17.084 15.14,17.377 L12.53,19.986 C10.179,22.338 6.366,22.338 4.014,19.986 C1.662,17.634 1.662,13.821 4.014,11.47 L6.623,8.86 C6.916,8.567 7.391,8.567 7.684,8.86 C7.977,9.153 7.977,9.628 7.684,9.921 Z M15.03,10.03 L10.03,15.03 C9.737,15.323 9.263,15.323 8.97,15.03 C8.677,14.737 8.677,14.263 8.97,13.97 L13.97,8.97 C14.263,8.677 14.737,8.677 15.03,8.97 C15.323,9.263 15.323,9.737 15.03,10.03 Z" />
</svg>